<svg xmlns="http://www.w3.org/2000/svg">
<path d="M21.641 84.84C16.7906 82.0396 10.5883 83.7015 7.78791 88.552C4.9875 93.4024 6.64939 99.6047 11.4998 102.405C16.3503 105.205 22.5525 103.544 25.3529 98.6931C28.1534 93.8427 26.4915 87.6404 21.641 84.84Z" />
<path d="M0 55.5428C0 48.3862 5.80157 42.5846 12.9582 42.5846C20.1148 42.5846 25.9163 48.3862 25.9163 55.5428C25.9163 62.6994 20.1148 68.501 12.9582 68.501C5.80157 68.501 0 62.6994 0 55.5428Z" />
<path d="M27.0431 70.7546C27.0431 65.1538 31.5835 60.6134 37.1843 60.6134C42.7851 60.6134 47.3255 65.1538 47.3255 70.7546C47.3255 76.3554 42.7851 80.8958 37.1843 80.8958C31.5835 80.8958 27.0431 76.3554 27.0431 70.7546Z" />
<path d="M48.4523 80.8958C48.4523 77.1619 51.4792 74.135 55.2131 74.135C58.947 74.135 61.9739 77.1619 61.9739 80.8958C61.9739 84.6296 58.947 87.6566 55.2131 87.6566C51.4792 87.6566 48.4523 84.6296 48.4523 80.8958Z" />
<path d="M88.4079 1.73823C82.2101 -1.84007 74.285 0.283452 70.7067 6.48125C67.1284 12.6791 69.2519 20.6041 75.4497 24.1824C81.6475 27.7607 89.5726 25.6372 93.1509 19.4394C96.7292 13.2416 94.6057 5.31653 88.4079 1.73823Z" />
<path d="M86.5315 33.0068C81.681 30.2064 75.4788 31.8683 72.6784 36.7188C69.878 41.5692 71.5398 47.7715 76.3903 50.5719C81.2407 53.3723 87.443 51.7104 90.2434 46.8599C93.0438 42.0095 91.3819 35.8072 86.5315 33.0068Z" />
<path d="M85.4156 56.3756C82.182 54.5087 78.0471 55.6166 76.1802 58.8503C74.3133 62.0839 75.4212 66.2187 78.6548 68.0857C81.8885 69.9526 86.0233 68.8447 87.8902 65.611C89.7572 62.3774 88.6492 58.2426 85.4156 56.3756Z" />
<path d="M50.9378 140.618C46.0873 137.817 39.8851 139.479 37.0846 144.33C34.2842 149.18 35.9461 155.382 40.7966 158.183C45.647 160.983 51.8493 159.321 54.6497 154.471C57.4501 149.62 55.7882 143.418 50.9378 140.618Z" />
<path d="M123.716 140.618C118.865 137.817 112.663 139.479 109.863 144.33C107.062 149.18 108.724 155.382 113.575 158.183C118.425 160.983 124.627 159.321 127.428 154.471C130.228 149.62 128.566 143.418 123.716 140.618Z" />
<path d="M164.512 132.165C164.512 139.321 158.711 145.123 151.554 145.123C144.398 145.123 138.596 139.321 138.596 132.165C138.596 125.008 144.398 119.206 151.554 119.206C158.711 119.206 164.512 125.008 164.512 132.165Z" />
<path d="M137.469 116.953C137.469 122.554 132.929 127.094 127.328 127.094C121.727 127.094 117.187 122.554 117.187 116.953C117.187 111.352 121.727 106.812 127.328 106.812C132.929 106.812 137.469 111.352 137.469 116.953Z" />
<path d="M116.06 106.812C116.06 110.546 113.033 113.572 109.299 113.572C105.565 113.572 102.539 110.546 102.539 106.812C102.539 103.078 105.565 100.051 109.299 100.051C113.033 100.051 116.06 103.078 116.06 106.812Z" />
<path d="M88.4079 185.554C82.2101 189.132 74.285 187.009 70.7067 180.811C67.1284 174.613 69.2519 166.688 75.4497 163.11C81.6475 159.531 89.5726 161.655 93.1509 167.853C96.7292 174.05 94.6057 181.976 88.4079 185.554Z" />
<path d="M86.9954 154.528C82.145 157.328 75.9427 155.666 73.1423 150.816C70.3419 145.966 72.0038 139.763 76.8543 136.963C81.7047 134.162 87.907 135.824 90.7074 140.675C93.5078 145.525 91.8459 151.727 86.9954 154.528Z" />
<path d="M85.4156 130.916C82.182 132.783 78.0471 131.675 76.1802 128.442C74.3133 125.208 75.4212 121.073 78.6548 119.206C81.8885 117.339 86.0233 118.447 87.8902 121.681C89.7572 124.915 88.6492 129.049 85.4156 130.916Z" />
<path d="M164.512 55.5423C164.512 48.3857 158.711 42.5842 151.554 42.5842C144.398 42.5842 138.596 48.3857 138.596 55.5423C138.596 62.6989 144.398 68.5005 151.554 68.5005C158.711 68.5005 164.512 62.6989 164.512 55.5423Z" />
<path d="M137.469 70.7541C137.469 65.1533 132.929 60.6129 127.328 60.6129C121.727 60.6129 117.187 65.1533 117.187 70.7541C117.187 76.3549 121.727 80.8953 127.328 80.8953C132.929 80.8953 137.469 76.3549 137.469 70.7541Z" />
<path d="M116.06 80.8953C116.06 77.1614 113.033 74.1345 109.299 74.1345C105.565 74.1345 102.539 77.1614 102.539 80.8953C102.539 84.6292 105.565 87.6561 109.299 87.6561C113.033 87.6561 116.06 84.6292 116.06 80.8953Z" />
<path d="M0 132.165C0 139.322 5.80157 145.123 12.9582 145.123C20.1148 145.123 25.9163 139.322 25.9163 132.165C25.9163 125.008 20.1148 119.207 12.9582 119.207C5.80157 119.207 0 125.008 0 132.165Z" />
<path d="M27.0431 116.953C27.0431 122.554 31.5835 127.094 37.1843 127.094C42.7851 127.094 47.3255 122.554 47.3255 116.953C47.3255 111.352 42.7851 106.812 37.1843 106.812C31.5835 106.812 27.0431 111.352 27.0431 116.953Z" />
<path d="M48.4523 106.812C48.4523 110.546 51.4792 113.573 55.2131 113.573C58.947 113.573 61.9739 110.546 61.9739 106.812C61.9739 103.078 58.947 100.051 55.2131 100.051C51.4792 100.051 48.4523 103.078 48.4523 106.812Z" />
<path d="M123.716 28.5001C118.865 25.6997 112.663 27.3616 109.863 32.2121C107.062 37.0625 108.724 43.2648 113.575 46.0652C118.425 48.8656 124.627 47.2037 127.428 42.3532C130.228 37.5028 128.566 31.3005 123.716 28.5001Z" />
<path d="M153.013 85.9668C148.162 83.1664 141.96 84.8283 139.159 89.6787C136.359 94.5292 138.021 100.731 142.871 103.532C147.722 106.332 153.924 104.67 156.724 99.8199C159.525 94.9695 157.863 88.7672 153.013 85.9668Z" />
<path d="M50.9378 28.9634C46.0873 26.163 39.8851 27.8249 37.0846 32.6753C34.2842 37.5258 35.9461 43.728 40.7966 46.5284C45.647 49.3288 51.8493 47.667 54.6497 42.8165C57.4501 37.9661 55.7882 31.7638 50.9378 28.9634Z" />
<path d="M266.233 158.821C300.264 158.821 316.278 143.252 316.278 120.564C316.278 102.103 306.047 88.0903 269.347 81.64C238.207 76.3018 231.312 68.0721 231.312 56.2836C231.312 43.1605 242.211 34.7084 260.227 34.7084C282.296 34.7084 291.362 45.6476 295.974 65.1401C296.27 66.3912 297.495 67.2051 298.757 66.9564L309.933 64.7527C311.221 64.4987 312.055 63.2389 311.752 61.9616C306.073 38.0112 292.357 20.4732 260.895 20.4732C231.757 20.4732 215.075 34.9308 215.075 56.7284C215.075 75.857 227.086 89.6473 263.564 95.8752C290.7 100.324 300.041 107.219 300.041 121.232C300.041 135.244 288.92 144.364 266.9 144.364C242.218 144.364 227.891 131.109 223.52 109.396C223.257 108.091 221.998 107.213 220.692 107.474L209.661 109.681C208.451 109.923 207.629 111.062 207.82 112.282C212.022 139.187 230.054 158.605 266.233 158.821Z" />
<path d="M386.667 145.031C364.87 145.031 351.079 129.239 351.079 105.217V103.882C351.079 78.5261 364.87 64.5133 386.667 64.5133C409.577 64.5133 420.476 78.9709 420.476 104.55C420.476 130.129 408.91 145.031 386.667 145.031ZM435.823 104.55C435.823 71.4085 420.476 50.5005 391.338 50.5005C368.206 50.5005 355.528 64.0684 351.302 84.3091H351.079V55.2999C351.079 54.0005 350.026 52.9472 348.727 52.9472H338.085C336.785 52.9472 335.732 54.0005 335.732 55.2999V184.939C335.732 186.238 336.785 187.292 338.085 187.292H348.727C350.026 187.292 351.079 186.238 351.079 184.939V124.568H351.302C355.305 145.031 367.539 159.044 392.005 158.821C419.364 159.044 435.823 138.136 435.823 104.55Z" />
<path d="M487.141 145.476C470.904 145.476 465.121 136.801 465.121 128.349C465.121 117.45 473.128 111.667 487.586 111.667H519.486C520.786 111.667 521.839 112.721 521.839 114.02V118.34C521.839 133.91 508.716 145.476 487.141 145.476ZM521.839 154.022C521.839 155.321 522.892 156.375 524.192 156.375H534.611C535.911 156.375 536.964 155.321 536.964 154.022V91.8715C536.964 65.403 524.73 50.7229 496.927 50.7229C472.353 50.7229 457.806 62.8402 453.693 86.2647C453.472 87.5235 454.339 88.7029 455.599 88.9131L465.683 90.5936C466.968 90.8078 468.178 89.9294 468.431 88.6513C471.88 71.2186 480.708 64.0684 496.483 64.0684C515.166 64.0684 521.839 74.0776 521.839 92.3164V99.2116H486.029C461.784 99.2116 449.996 112.557 449.996 129.684C449.996 149.035 462.896 158.599 483.804 158.599C502.043 158.599 516.723 149.257 521.617 129.684H521.839V154.022Z" />
<path d="M573.966 156.375C575.266 156.375 576.319 155.321 576.319 154.022V99.6564C576.319 78.0812 586.106 69.6291 606.791 69.6291H612.891C614.19 69.6291 615.243 68.5757 615.243 67.2764V55.2999C615.243 54.0005 614.19 52.9472 612.891 52.9472H608.126C590.999 52.9472 580.545 65.4234 576.764 86.5538H576.319V55.2999C576.319 54.0005 575.266 52.9472 573.966 52.9472H563.324C562.025 52.9472 560.972 54.0005 560.972 55.2999V154.022C560.972 155.321 562.025 156.375 563.324 156.375H573.966Z" />
<path d="M643.759 22.381C643.759 21.0817 642.706 20.0283 641.406 20.0283H630.764C629.465 20.0283 628.412 21.0816 628.412 22.381V154.022C628.412 155.321 629.465 156.375 630.764 156.375H641.406C642.706 156.375 643.759 155.321 643.759 154.022V110.555H645.094L695.624 153.569C697.752 155.38 700.455 156.375 703.249 156.375H718.356C718.555 156.375 718.716 156.213 718.716 156.014C718.716 155.961 718.693 155.91 718.652 155.876L657.327 104.55L714.43 53.4462C714.468 53.4118 714.49 53.3625 714.49 53.3108C714.49 53.11 714.327 52.9472 714.127 52.9472H699.663C696.751 52.9472 693.943 54.0273 691.781 55.9785L644.871 98.3219H643.759V22.381Z" />
<path d="M742.514 156.375C743.813 156.375 744.867 155.321 744.867 154.022V99.6564C744.867 78.0812 754.653 69.6291 775.339 69.6291H781.438C782.738 69.6291 783.791 68.5757 783.791 67.2764V55.2999C783.791 54.0005 782.738 52.9472 781.438 52.9472H776.673C759.547 52.9472 749.093 64.2304 745.312 85.3607H744.867V55.2999C744.867 54.0005 743.813 52.9472 742.514 52.9472H731.872C730.573 52.9472 729.519 54.0005 729.519 55.2999V154.022C729.519 155.321 730.573 156.375 731.872 156.375H742.514Z" />
</svg>
